<?xml version="1.0" standalone="no"?>
<!DOCTYPE svg PUBLIC "-//W3C//DTD SVG 20010904//EN"
 "http://www.w3.org/TR/2001/REC-SVG-20010904/DTD/svg10.dtd">
<svg version="1.0" xmlns="http://www.w3.org/2000/svg"
 width="256.000000pt" height="256.000000pt" viewBox="0 0 256.000000 256.000000"
 preserveAspectRatio="xMidYMid meet">
<metadata>
Created by potrace 1.14, written by Peter Selinger 2001-2017
</metadata>
<g transform="translate(0.000000,256.000000) scale(0.100000,-0.100000)"
fill="#000000" stroke="none">
<path d="M220 1530 l0 -530 518 -2 517 -3 3 -257 2 -258 530 0 530 0 0 535 0
535 -260 0 -260 0 0 255 0 255 -790 0 -790 0 0 -530z m518 263 l2 -243 -250 0
-250 0 0 245 0 245 248 -2 247 -3 3 -242z m366 223 c-154 -57 -263 -166 -320
-319 l-23 -62 0 203 -1 202 203 -1 202 0 -61 -23z m673 -181 l2 -200 -23 61
c-61 158 -166 263 -319 320 l-62 23 200 -2 200 -2 2 -200z m-1467 -323 c0 -5
-8 -17 -19 -26 -17 -15 -19 -16 -25 -1 -3 9 -4 21 0 26 7 11 44 12 44 1z m60
-67 l-75 -76 -12 28 c-11 26 -9 31 35 76 40 41 52 47 86 47 l40 0 -74 -75z
m190 67 c0 -4 -51 -58 -114 -121 -106 -106 -115 -112 -125 -93 -6 11 -11 27
-11 35 0 7 40 52 89 100 78 77 93 87 125 87 20 0 36 -3 36 -8z m130 0 c0 -4
-68 -75 -151 -157 l-150 -150 -20 24 -20 25 133 133 c123 124 135 133 170 133
21 0 38 -3 38 -8z m130 1 c0 -10 -42 -53 -52 -53 -10 0 -11 44 -1 53 8 9 53 9
53 0z m120 -1 c0 -4 -40 -48 -90 -97 l-90 -90 0 40 c0 35 7 47 57 97 47 47 63
58 90 58 18 0 33 -3 33 -8z m130 0 c0 -4 -70 -77 -155 -162 l-155 -155 0 46
c0 44 2 47 118 162 108 106 122 117 155 117 21 0 37 -3 37 -8z m130 0 c0 -4
-99 -106 -220 -227 l-220 -220 0 45 c0 45 0 45 182 227 172 172 185 183 220
183 21 0 38 -3 38 -8z m460 4 c0 -2 -27 -13 -59 -25 -123 -45 -237 -160 -292
-295 l-24 -59 -3 179 c-1 98 0 184 2 191 4 10 49 13 191 13 102 0 185 -2 185
-4z m638 -243 l2 -243 -250 0 -250 0 0 238 c0 131 3 242 7 246 4 3 115 5 247
4 l241 -3 3 -242z m-1558 193 c0 -39 3 -36 -162 -196 -126 -122 -128 -123
-148 -105 -21 19 -20 20 137 177 87 87 161 158 165 158 5 0 8 -15 8 -34z
m1038 2 c4 -34 -4 -35 -35 -6 -30 28 -29 40 5 36 21 -2 28 -9 30 -30z m-552
-30 c-6 -40 -20 -57 -169 -206 -160 -160 -191 -182 -252 -182 -14 0 47 67 200
220 120 120 221 217 223 215 3 -2 1 -24 -2 -47z m554 -90 c0 -21 -3 -38 -8
-38 -11 0 -157 149 -151 154 3 3 16 9 29 15 22 8 31 3 78 -42 45 -44 52 -57
52 -89z m-98 5 c91 -91 98 -100 98 -138 l0 -40 -124 124 c-112 111 -123 126
-108 137 9 8 21 14 27 14 5 0 54 -44 107 -97z m-1372 -89 c57 -92 148 -169
250 -211 l55 -23 -187 0 -188 0 1 198 0 197 23 -61 c12 -33 33 -78 46 -100z
m950 -39 l0 -195 -187 1 -188 0 49 20 c72 29 151 85 200 141 44 50 97 147 110
201 3 15 9 27 11 27 3 0 5 -88 5 -195z m520 -128 c0 -20 -3 -37 -8 -37 -4 0
-77 69 -161 154 l-155 155 25 20 24 20 138 -138 c126 -127 137 -140 137 -174z
m-1143 105 c-99 -99 -106 -103 -128 -92 -13 7 -26 15 -29 17 -3 3 54 60 125
128 l130 123 3 -36 c3 -33 -3 -42 -101 -140z m1071 -170 c-41 -3 -42 -3 -176
131 l-134 134 18 27 17 27 159 -158 158 -158 -42 -3z m-544 246 c-21 -41 -119
-137 -164 -162 -26 -13 -7 10 70 88 57 58 106 106 108 106 1 0 -5 -14 -14 -32z
m341 -128 l120 -120 -40 0 c-37 0 -49 7 -139 93 -96 90 -98 93 -85 120 6 15
15 27 18 27 4 0 60 -54 126 -120z m-765 62 c0 -33 -8 -45 -58 -95 -57 -56 -59
-57 -91 -46 l-33 12 83 83 c46 46 87 84 91 84 5 0 8 -17 8 -38z m714 -180
c-33 -3 -43 2 -87 46 -45 45 -49 52 -42 82 l7 32 79 -78 80 -79 -37 -3z m-714
53 c0 -34 -1 -35 -42 -35 l-42 0 34 35 c19 19 38 35 42 35 4 0 8 -16 8 -35z
m600 -53 c-40 -4 -44 0 -36 34 l7 27 30 -29 31 -29 -32 -3z m15 -292 c64 -101
153 -173 268 -216 l62 -23 -200 2 -200 2 -2 200 -2 200 23 -61 c13 -34 36 -80
51 -104z m945 -40 l0 -200 -202 1 -203 0 62 23 c154 57 284 190 323 331 7 25
14 45 16 45 2 0 4 -90 4 -200z"/>
</g>
</svg>
